<?xml version="1.0" encoding="UTF-8"?>
<svg width="128" height="128" version="1.1" viewBox="0 0 128 128" xmlns="http://www.w3.org/2000/svg">
  <rect x="8" y="32" width="112" height="64" rx="8" fill="#3e3e3e" stroke="#4e4e4e" stroke-width="2"/>
  <rect x="16" y="40" width="12" height="12" rx="2" fill="#5e5e5e"/>
  <rect x="32" y="40" width="12" height="12" rx="2" fill="#5e5e5e"/>
  <rect x="48" y="40" width="12" height="12" rx="2" fill="#5e5e5e"/>
  <rect x="64" y="40" width="12" height="12" rx="2" fill="#5e5e5e"/>
  <rect x="80" y="40" width="12" height="12" rx="2" fill="#5e5e5e"/>
  <rect x="96" y="40" width="12" height="12" rx="2" fill="#5e5e5e"/>
  <rect x="16" y="56" width="12" height="12" rx="2" fill="#5e5e5e"/>
  <rect x="32" y="56" width="12" height="12" rx="2" fill="#5e5e5e"/>
  <rect x="48" y="56" width="12" height="12" rx="2" fill="#5e5e5e"/>
  <rect x="64" y="56" width="12" height="12" rx="2" fill="#5e5e5e"/>
  <rect x="80" y="56" width="12" height="12" rx="2" fill="#5e5e5e"/>
  <rect x="96" y="56" width="12" height="12" rx="2" fill="#5e5e5e"/>
  <rect x="16" y="72" width="20" height="12" rx="2" fill="#4a4a4a"/>
  <rect x="40" y="72" width="48" height="12" rx="2" fill="#5e5e5e"/>
  <rect x="92" y="72" width="16" height="12" rx="2" fill="#4a4a4a"/>
</svg>
